<svg id="Layer_1" data-name="Layer 1" xmlns="http://www.w3.org/2000/svg" viewBox="0 0 1096 560"><defs><style>.cls-1{fill:#b79a21;}.cls-2{fill:#c18c6b;}.cls-3{fill:#a36d4f;}.cls-4{fill:#6d5a5e;}.cls-28,.cls-5{fill:#fff;}.cls-5{opacity:0.87;}.cls-6{fill:#754c24;}.cls-7{fill:#009245;}.cls-8{fill:#f9d023;}.cls-9{fill:#4d4d4d;}.cls-10{fill:none;}.cls-11{fill:#7f1b22;}.cls-12{fill:#e5ba8f;}.cls-13{fill:#106837;}.cls-14{fill:#4f4c4f;}.cls-15{fill:#828183;}.cls-16{fill:#3a332a;}.cls-17{fill:#4e5b65;}.cls-18{fill:#4e4848;}.cls-19{fill:#e5ebdc;}.cls-20{fill:#060707;}.cls-21{fill:#adaeaf;}.cls-22{fill:#1a1a1c;}.cls-23{fill:#494948;}.cls-24{fill:#b9bcc4;}.cls-25{fill:#d1d3d5;}.cls-26{fill:#231f20;}.cls-27{fill:#cdc0b2;}.cls-29{fill:#9f978c;}.cls-30{fill:#a6a8ab;}.cls-31{fill:#c1272d;}.cls-32{fill:#ede27e;}.cls-33{fill:#307553;}.cls-34{fill:#3e7b69;}</style></defs><title>Land</title><ellipse class="cls-1" cx="422.15" cy="244.09" rx="5" ry="2.33"/><rect class="cls-2" x="826.16" y="345.33" width="41.92" height="34.16"/><circle class="cls-3" cx="835.26" cy="358.55" r="3.7"/><circle class="cls-3" cx="859.08" cy="358.55" r="3.7"/><polygon class="cls-4" points="846.35 348.44 810.64 348.44 828.49 335.63 846.35 322.82 864.2 335.63 882.06 348.44 846.35 348.44"/><rect class="cls-4" x="854.11" y="323.6" width="10.87" height="15.53"/><circle class="cls-5" cx="835.26" cy="356.9" r="3.7"/><circle class="cls-5" cx="859.08" cy="356.9" r="3.7"/><path class="cls-6" d="M847.17,362.24h0a5.75,5.75,0,0,1,5.75,5.75v11.5a0,0,0,0,1,0,0h-11.5a0,0,0,0,1,0,0V368A5.75,5.75,0,0,1,847.17,362.24Z"/><rect class="cls-3" x="826.63" y="348.28" width="41.89" height="1.64"/><path class="cls-7" d="M823.56,561h265.33C1047.4,447.45,931.58,364.67,793.74,360.13a299.71,299.71,0,0,1,35.51,142.16A303.9,303.9,0,0,1,823.56,561Z"/><path class="cls-8" d="M592.47,415.42c53.23-34.92,118.62-55.51,189.32-55.51,4,0,8,.09,12,.22C745.27,269.88,652.1,208.78,545.11,208.78c-92.16,0-174,45.34-226,115.58,7.61-.43,15.28-.67,23-.67C440.18,323.69,528.8,358.81,592.47,415.42Z"/><path class="cls-9" d="M518.07,209.41,486.2,355.06l112.11,68.78L558.06,208.65S536.4,207.58,518.07,209.41Z"/><line class="cls-10" x1="558.47" y1="208.24" x2="598.72" y2="423.43"/><path class="cls-7" d="M592.47,415.42C637,455,669.31,505.06,684.11,561H823.56a303.9,303.9,0,0,0,5.69-58.7,299.71,299.71,0,0,0-35.51-142.16c-4-.13-8-.22-12-.22C711.09,359.91,645.7,380.5,592.47,415.42Z"/><ellipse class="cls-1" cx="470.59" cy="240.28" rx="39.83" ry="4.52"/><ellipse class="cls-1" cx="604.47" cy="240.28" rx="39.83" ry="4.52"/><ellipse class="cls-11" cx="692.5" cy="404.5" rx="7.5" ry="3.5"/><polygon class="cls-12" points="693.12 388.6 674.23 388.6 683.67 363.55 693.12 338.5 702.56 363.55 712.01 388.6 693.12 388.6"/><path class="cls-12" d="M686.14,379.56l5.75,5.5Z"/><path class="cls-12" d="M691.89,387.91l5.74-4.24Z"/><polyline class="cls-12" points="697.63 375.46 691.88 380.46 697.63 375.46"/><ellipse class="cls-13" cx="773.47" cy="418.09" rx="108.64" ry="12.32"/><path class="cls-14" d="M778.7,392.94h-10s-.3,11.9-.73,12.85l.36,18.94,1.84-7.57h7.47l1.47,7.7.36-18.95S778.87,398.58,778.7,392.94Zm-2.1,14.87h-5.13V399.5h5.13Z"/><path class="cls-15" d="M777.49,300.59h-1.86v4.8h-3.71v-4.8h-2.46l-1.85,92.35h11.73Zm-1,22.58H771.4V312.43h5.07Z"/><rect class="cls-16" x="768.38" y="273.06" width="11.58" height="8.71"/><rect class="cls-17" x="768.38" y="272.17" width="11.58" height="8.71"/><polygon class="cls-18" points="747.04 356.36 746.87 361.4 759.68 361.4 760.01 356.36 747.04 356.36"/><path class="cls-19" d="M756,302.37h1.13l-.37,11.37s0,4.22,4.69,4.11l-.19,4.9s-4.36.05-4.77,3.81l-.06,2.22h-1.07Z"/><path class="cls-16" d="M754.57,300.77H756s-.77,27.56-.64,28h-1.7Z"/><polygon class="cls-16" points="752.57 329.5 754.33 292.14 751.8 292.14 750.24 329.83 752.57 329.5"/><path class="cls-20" d="M756.05,396.28s-5.21,5.08-9.18-2.72h9.55Z"/><path class="cls-19" d="M752,280.44l.64,3.6s-1.85,43.88-1.85,46.07l-1.22-1.33Z"/><polygon class="cls-16" points="749.54 280.44 752 280.44 749.54 329.55 747.03 329.55 749.54 280.44"/><path class="cls-21" d="M749.49,267.44h1.18l-.59,15.49a4.56,4.56,0,0,0,4.14,4c3.87.48,8.23-.45,8.07-9l.24-10.57h1.34l-1.2,32s-.58-6.45-8.08-6.23c0,0-5.7.24-5.71,9.21l-1,26.39h-2.2l3.24-61.34Z"/><path class="cls-22" d="M732.52,385s-3.08,1.38-3.12,5.75-.45,22.38-.45,22.38l-2.24.78H721.6l1-23.52s-1-9.27,7.09-8.37Z"/><path class="cls-21" d="M744.72,416.85s-.92-15.49,11.62-10.77l1.26-11.29s-3.14,4.91-8.78,1.11c0,0-3.54-2.18-3.14-8.26l1-31.28h14.28l.7-27.58H745l-3.43,88.07Z"/><path class="cls-23" d="M719.36,416.62l2.63-1,1.31-25.86s-.37-6.92,5.65-7.26c0,0-7.48-2.81-8,5.7Z"/><path class="cls-24" d="M735.78,266.52h13.76s-7.65,140.63-6.88,150.68H731.23l.92-29.1a5.05,5.05,0,0,0-4.52-5.93c-5.39-.82-7,4.87-6.74,8.51l-1.53,25.94-34.8-.53v-2.58l-9.8-12s35.79-11.42,50-77.67C738.83,257.81,735.24,268.06,735.78,266.52Z"/><path class="cls-25" d="M763.58,262h7.18s-1.4,139.22-2.83,143.75l.36,18.94H756s.71-2.74-1.43-18.82a508.82,508.82,0,0,0,6.33-75.65Z"/><path class="cls-22" d="M762.15,298.85s-2.67-7.29-10.55-3.17a7.6,7.6,0,0,0-2.58,4.44s.55-7.25,6.86-6.91c6.06.33,6.27,4.3,6.27,4.3Z"/><polygon class="cls-19" points="753.61 328.78 754.78 294.54 754.21 294.54 752.64 328.78 753.61 328.78"/><polygon class="cls-20" points="747.07 362.02 759.63 362.02 759.68 361.4 746.87 361.4 746.87 362.02 747.07 362.02"/><polygon class="cls-18" points="746.77 364.19 759.47 364.19 759.63 362.02 746.87 362.02 746.77 364.19"/><polygon class="cls-20" points="746.77 364.94 759.41 365.04 759.47 364.19 746.77 364.19 746.77 364.94"/><polygon class="cls-18" points="746.69 367.08 759.24 367.08 759.41 365.04 746.77 364.94 746.69 367.08"/><polygon class="cls-20" points="746.69 367.76 759.19 367.76 759.24 367.08 746.69 367.08 746.69 367.76"/><polygon class="cls-18" points="746.61 369.98 759 369.98 759.19 367.76 746.69 367.76 746.61 369.98"/><polygon class="cls-20" points="746.69 370.64 758.94 370.64 759 369.98 746.61 369.98 746.59 370.64 746.69 370.64"/><polygon class="cls-18" points="746.53 372.81 758.75 372.81 758.94 370.64 746.59 370.64 746.53 372.81"/><polygon class="cls-20" points="746.53 373.52 758.67 373.61 758.75 372.81 746.53 372.81 746.53 373.52"/><polygon class="cls-18" points="746.4 375.76 758.46 375.84 758.67 373.61 746.53 373.52 746.4 375.76"/><polygon class="cls-20" points="746.4 376.42 758.39 376.51 758.46 375.84 746.4 375.76 746.4 376.42"/><polygon class="cls-18" points="746.29 378.71 758.17 378.71 758.39 376.51 746.4 376.42 746.29 378.71"/><polygon class="cls-20" points="746.29 379.31 758.1 379.36 758.17 378.71 746.29 378.71 746.29 379.31"/><polygon class="cls-18" points="746.16 381.64 757.85 381.71 758.1 379.36 746.29 379.31 746.16 381.64"/><polygon class="cls-20" points="746.16 382.22 757.78 382.32 757.85 381.71 746.16 381.64 746.16 382.22"/><polygon class="cls-18" points="746.08 384.71 757.46 384.71 757.78 382.32 746.16 382.22 746.08 384.71"/><polygon class="cls-20" points="746.08 385.29 757.44 385.38 757.46 384.71 746.08 384.71 746.08 385.29"/><polygon class="cls-18" points="745.97 387.52 757.17 387.62 757.44 385.38 746.08 385.29 745.97 387.52"/><polygon class="cls-20" points="745.97 388.18 757.09 388.31 757.17 387.62 745.97 387.52 745.97 388.18"/><polygon class="cls-18" points="745.97 390.55 756.79 390.67 757.09 388.31 745.97 388.18 745.97 390.55"/><polygon class="cls-20" points="756.7 391.38 746.08 391.38 745.97 390.55 756.79 390.67 756.7 391.38"/><path class="cls-18" d="M756.42,393.56h-9.55a9.14,9.14,0,0,1-.79-2.18H756.7Z"/><polygon class="cls-18" points="800.32 356.49 800.5 361.53 787.68 361.53 787.35 356.49 800.32 356.49"/><path class="cls-19" d="M791.42,302.49h-1.14l.37,11.38s0,4.22-4.69,4.1l.19,4.9s4.36.06,4.77,3.81l.06,2.22h1.07Z"/><path class="cls-16" d="M792.79,300.89h-1.37s.76,27.56.63,28h1.71Z"/><polygon class="cls-16" points="794.79 329.63 793.03 292.26 795.56 292.26 797.12 329.95 794.79 329.63"/><path class="cls-20" d="M791.31,396.41s5.21,5.07,9.19-2.73h-9.56Z"/><path class="cls-19" d="M795.36,280.56l-.64,3.6s1.85,43.88,1.85,46.07l1.22-1.33Z"/><polygon class="cls-16" points="797.83 280.56 795.36 280.56 797.83 329.67 800.33 329.67 797.83 280.56"/><path class="cls-21" d="M797.88,267.57h-1.19l.59,15.49a4.54,4.54,0,0,1-4.14,4c-3.87.48-8.23-.45-8.06-9l-.25-10.56h-1.34l1.2,32s.58-6.45,8.09-6.23c0,0,5.69.24,5.7,9.21l1,26.39h2.2l-3.24-61.33Z"/><path class="cls-22" d="M814.84,385.15s3.08,1.39,3.12,5.75.45,22.38.45,22.38l2.24.78h5.11l-1-23.52s1-9.26-7.09-8.37Z"/><path class="cls-21" d="M802.64,417s.92-15.49-11.62-10.77l-1.25-11.29s3.13,4.91,8.77,1.11c0,0,3.54-2.18,3.14-8.26l-1-31.28H786.45l-.7-27.58h16.59L805.77,417Z"/><path class="cls-23" d="M828,416.74l-2.63-1-1.31-25.86s.38-6.92-5.65-7.25c0,0,7.48-2.82,8,5.69Z"/><path class="cls-24" d="M811.59,266.64H797.83s7.64,140.63,6.88,150.68h11.42l-.92-29.1a5.05,5.05,0,0,1,4.52-5.93c5.4-.82,7,4.88,6.75,8.51L828,416.74l34.8-.52v-2.59l9.8-12s-35.78-11.42-50-77.66C808.53,257.94,812.12,268.18,811.59,266.64Z"/><path class="cls-25" d="M783.78,262.16H776.6s1.4,139.22,2.83,143.75l-.36,18.95h12.28s-.72-2.74,1.43-18.83a507.79,507.79,0,0,1-6.34-75.65Z"/><path class="cls-22" d="M785.22,299s2.66-7.28,10.54-3.17a7.6,7.6,0,0,1,2.58,4.44s-.55-7.25-6.86-6.9c-6.06.32-6.26,4.29-6.26,4.29Z"/><polygon class="cls-19" points="793.75 328.9 792.58 294.66 793.15 294.66 794.72 328.9 793.75 328.9"/><polygon class="cls-20" points="800.29 362.14 787.73 362.14 787.68 361.53 800.5 361.53 800.5 362.14 800.29 362.14"/><polygon class="cls-18" points="800.6 364.31 787.89 364.31 787.73 362.14 800.5 362.14 800.6 364.31"/><polygon class="cls-20" points="800.6 365.06 787.96 365.17 787.89 364.31 800.6 364.31 800.6 365.06"/><polygon class="cls-18" points="800.67 367.2 788.12 367.2 787.96 365.17 800.6 365.06 800.67 367.2"/><polygon class="cls-20" points="800.67 367.89 788.17 367.89 788.12 367.2 800.67 367.2 800.67 367.89"/><polygon class="cls-18" points="800.75 370.1 788.36 370.1 788.17 367.89 800.67 367.89 800.75 370.1"/><polygon class="cls-20" points="800.67 370.76 788.42 370.76 788.36 370.1 800.75 370.1 800.77 370.76 800.67 370.76"/><polygon class="cls-18" points="800.83 372.94 788.62 372.94 788.42 370.76 800.77 370.76 800.83 372.94"/><polygon class="cls-20" points="800.83 373.65 788.69 373.73 788.62 372.94 800.83 372.94 800.83 373.65"/><polygon class="cls-18" points="800.96 375.88 788.9 375.96 788.69 373.73 800.83 373.65 800.96 375.88"/><polygon class="cls-20" points="800.96 376.55 788.97 376.63 788.9 375.96 800.96 375.88 800.96 376.55"/><polygon class="cls-18" points="801.07 378.83 789.19 378.83 788.97 376.63 800.96 376.55 801.07 378.83"/><polygon class="cls-20" points="801.07 379.43 789.26 379.49 789.19 378.83 801.07 378.83 801.07 379.43"/><polygon class="cls-18" points="801.2 381.76 789.51 381.83 789.26 379.49 801.07 379.43 801.2 381.76"/><polygon class="cls-20" points="801.2 382.34 789.58 382.44 789.51 381.83 801.2 381.76 801.2 382.34"/><polygon class="cls-18" points="801.28 384.83 789.9 384.83 789.58 382.44 801.2 382.34 801.28 384.83"/><polygon class="cls-20" points="801.28 385.41 789.92 385.51 789.9 384.83 801.28 384.83 801.28 385.41"/><polygon class="cls-18" points="801.39 387.65 790.19 387.74 789.92 385.51 801.28 385.41 801.39 387.65"/><polygon class="cls-20" points="801.39 388.31 790.27 388.43 790.19 387.74 801.39 387.65 801.39 388.31"/><polygon class="cls-18" points="801.39 390.67 790.57 390.8 790.27 388.43 801.39 388.31 801.39 390.67"/><polygon class="cls-20" points="790.66 391.51 801.28 391.51 801.39 390.67 790.57 390.8 790.66 391.51"/><path class="cls-18" d="M790.94,393.68h9.56a9.33,9.33,0,0,0,.78-2.17H790.66Z"/><polygon class="cls-26" points="773.01 276.79 772.2 276.05 773.28 275.85 773.73 274.85 774.25 275.82 775.34 275.94 774.58 276.73 774.81 277.8 773.82 277.33 772.87 277.87 773.01 276.79"/><polygon class="cls-27" points="439.21 240.52 439.21 141.46 429.95 141.46 429.95 135.52 439.21 135.52 439.21 126.67 444.04 123.89 444.04 92.14 510.95 92.14 510.95 78.4 517.25 78.4 517.25 48.26 536.35 62.2 556.34 48.26 556.34 78.4 561.76 78.4 561.76 91.99 626.15 92.14 626.15 123.89 630.98 127.07 630.84 135.34 640.24 135.34 640.24 141.46 630.98 141.55 630.98 240.39 588.95 240.64 588.95 159.1 580.37 159.1 580.37 240.74 569.66 240.74 569.66 159.1 503.98 159.1 503.98 240.42 493.51 240.42 493.51 159.29 484.64 159.29 484.64 240.41 439.21 240.52"/><polyline class="cls-28" points="510.95 91.99 510.95 78.4 517.25 78.4 517.25 48.26 536.35 62.2 556.34 48.26 556.34 78.4 561.76 78.4 561.76 91.99 510.95 91.99"/><polyline class="cls-29" points="439.21 141.07 439.21 146.75 630.98 146.75 630.98 141.2 439.21 141.2"/><polyline class="cls-29" points="439.14 158.82 439.14 161.47 484.64 161.47 484.64 158.88 439.14 158.88"/><polyline class="cls-29" points="493.51 158.82 493.51 161.47 503.98 161.47 503.98 158.88 493.51 158.88"/><polyline class="cls-29" points="569.58 158.7 569.58 161.13 580.05 161.13 580.05 158.76 569.58 158.76"/><polyline class="cls-29" points="588.95 158.89 588.95 160.53 630.98 160.53 630.98 158.93 588.95 158.93"/><polyline class="cls-29" points="443.97 96.07 443.97 99.57 626.15 99.57 626.14 96.15 443.97 96.15"/><polyline class="cls-29" points="455.84 213.28 455.84 221 467.44 220.95 467.44 213.23 455.84 213.28"/><polyline class="cls-29" points="600.55 221.58 600.55 229.43 612.15 229.38 612.15 221.53 600.55 221.58"/><polyline class="cls-29" points="617.39 229.51 617.39 237.37 630.98 237.32 630.98 229.46 617.39 229.51"/><polyline class="cls-29" points="606.24 182.58 606.24 190.47 617.84 190.41 617.84 182.53 606.24 182.58"/><polyline class="cls-29" points="467.67 197.65 467.67 205.37 480.62 205.32 480.62 197.6 467.67 197.65"/><polyline class="cls-10" points="439.21 240.52 439.21 141.46 429.95 141.46 429.95 135.34 439.21 135.34 439.21 126.67 444.04 123.89 444.04 92.14 539.34 92.14"/><polyline class="cls-10" points="630.98 240.52 630.98 141.46 640.24 141.46 640.24 135.34 630.98 135.34 630.98 126.67 626.15 123.89 626.15 92.14 530.85 92.14"/><polyline class="cls-10" points="484.64 240.52 484.64 159.1 493.3 159.1 493.3 240.52 503.88 240.52 503.88 159.1 536.8 159.1"/><polyline class="cls-10" points="588.95 240.52 588.95 159.1 580.29 159.1 580.29 240.52 569.71 240.52 569.71 159.1 536.8 159.1"/><polygon class="cls-30" points="517.25 56.35 517.25 78.4 525.19 77.7 529.08 64.07 517.25 56.35"/><polygon class="cls-30" points="556.34 56.83 556.34 78.88 548.43 78.17 544.56 64.54 556.34 56.83"/><polygon class="cls-30" points="533.17 67.08 539.34 67.08 549.08 78.17 524.56 77.99 533.17 67.08"/><rect class="cls-10" x="510.95" y="78.4" width="50.81" height="13.59"/><polygon class="cls-10" points="517.25 78.4 517.25 48.26 536.35 62.2 556.34 48.26 556.34 78.4 517.25 78.4"/><polygon points="536.87 44.39 542.17 57.18 555.46 57.11 545.45 64.55 548.55 77.7 536.87 70.55 525.2 77.7 528.29 64.55 518.28 57.11 531.57 57.18 536.87 44.39"/><rect class="cls-29" x="500.51" y="105.54" width="71.7" height="15.82"/><circle class="cls-10" cx="448.38" cy="170.23" r="2.42"/><circle class="cls-10" cx="476.43" cy="170.23" r="2.42"/><circle class="cls-10" cx="498.65" cy="170.23" r="2.42"/><circle class="cls-10" cx="627.12" cy="170.67" r="2.42"/><circle class="cls-10" cx="598.06" cy="171.01" r="2.42"/><circle class="cls-10" cx="574.82" cy="170.34" r="2.42"/><path class="cls-26" d="M480.28,149.78h3.43v.61h-2.77v1.83h2.58v.61h-2.58v2.49h-.66Z"/><path class="cls-26" d="M486,149.78h1.42a7,7,0,0,1,.79.05,2.25,2.25,0,0,1,.71.2,1.33,1.33,0,0,1,.51.46,1.49,1.49,0,0,1,.19.82,1.33,1.33,0,0,1-.37,1,1.75,1.75,0,0,1-1,.48l1.57,2.55H489l-1.5-2.49h-.84v2.49H486Zm.66,2.44h1.15a2.15,2.15,0,0,0,.54-.11.82.82,0,0,0,.41-.27.74.74,0,0,0,.16-.52.85.85,0,0,0-.12-.48.84.84,0,0,0-.31-.28,1.44,1.44,0,0,0-.43-.13l-.48,0h-.92Z"/><path class="cls-26" d="M492.14,149.78h3.47v.61h-2.82v1.74h2.64v.61h-2.64v2h3v.61h-3.62Z"/><path class="cls-26" d="M498.14,149.78h3.48v.61H498.8v1.74h2.63v.61H498.8v2h3v.61h-3.62Z"/><path class="cls-26" d="M504,149.78h2.13a2.91,2.91,0,0,1,.57.06,3.35,3.35,0,0,1,.61.2,2.77,2.77,0,0,1,.58.36,2.27,2.27,0,0,1,.49.53,2.45,2.45,0,0,1,.33.71,3.25,3.25,0,0,1,0,1.82,2.58,2.58,0,0,1-.33.71,2.49,2.49,0,0,1-.49.53,3.2,3.2,0,0,1-.58.35,2.72,2.72,0,0,1-.61.2,3,3,0,0,1-.57.07H504Zm.66,4.93H506a3.06,3.06,0,0,0,.88-.13,1.72,1.72,0,0,0,.7-.39,1.69,1.69,0,0,0,.47-.66,2.45,2.45,0,0,0,.17-1,2.42,2.42,0,0,0-.17-1,1.8,1.8,0,0,0-.47-.67,1.82,1.82,0,0,0-.7-.38,2.75,2.75,0,0,0-.88-.13H504.7Z"/><path class="cls-26" d="M513.87,155.46a3.11,3.11,0,0,1-1.16-.22,2.85,2.85,0,0,1-.91-.61,2.62,2.62,0,0,1-.6-.92,3.17,3.17,0,0,1,0-2.32,2.53,2.53,0,0,1,.6-.92,2.85,2.85,0,0,1,.91-.61,3,3,0,0,1,3.24.61,2.53,2.53,0,0,1,.6.92,3.31,3.31,0,0,1,0,2.32,2.62,2.62,0,0,1-.6.92,2.9,2.9,0,0,1-.92.61A3.11,3.11,0,0,1,513.87,155.46Zm0-.61a2.14,2.14,0,0,0,.89-.18,2,2,0,0,0,.69-.5,2.25,2.25,0,0,0,.45-.73,2.35,2.35,0,0,0,.16-.89,2.44,2.44,0,0,0-.16-.9,2.48,2.48,0,0,0-.45-.73,2,2,0,0,0-.69-.49,2.14,2.14,0,0,0-.89-.18,2.1,2.1,0,0,0-.88.18,2.16,2.16,0,0,0-.7.49,2.48,2.48,0,0,0-.45.73,2.66,2.66,0,0,0-.16.9,2.56,2.56,0,0,0,.16.89,2.25,2.25,0,0,0,.45.73,2.19,2.19,0,0,0,.7.5A2.1,2.1,0,0,0,513.87,154.85Z"/><path class="cls-26" d="M519.19,149.78h1l1.88,4.34h0l1.89-4.34h.95v5.54h-.66v-4.65h0l-2,4.65h-.4l-2-4.65h0v4.65h-.65Z"/><path class="cls-26" d="M533,149.78h.62l2.35,5.54h-.76l-.57-1.36h-2.76l-.57,1.36h-.75Zm.3.85h0l-1.15,2.72h2.26Z"/><path class="cls-26" d="M538.06,149.78h.82l3.21,4.6h0v-4.6h.66v5.54h-.83l-3.2-4.6h0v4.6h-.65Z"/><path class="cls-26" d="M545.4,149.78h2.13a3.09,3.09,0,0,1,.58.06,3.52,3.52,0,0,1,.6.2,2.77,2.77,0,0,1,.58.36,2.08,2.08,0,0,1,.49.53,2.45,2.45,0,0,1,.33.71,3.25,3.25,0,0,1,0,1.82,2.58,2.58,0,0,1-.33.71,2.26,2.26,0,0,1-.49.53,3.2,3.2,0,0,1-.58.35,2.82,2.82,0,0,1-.6.2,3.15,3.15,0,0,1-.58.07H545.4Zm.66,4.93h1.25a3.06,3.06,0,0,0,.88-.13,1.83,1.83,0,0,0,.71-.39,1.78,1.78,0,0,0,.46-.66,2.45,2.45,0,0,0,.18-1,2.42,2.42,0,0,0-.18-1,1.9,1.9,0,0,0-.46-.67,1.94,1.94,0,0,0-.71-.38,2.75,2.75,0,0,0-.88-.13h-1.25Z"/><path class="cls-26" d="M558.59,153.88a1.77,1.77,0,0,1-.08.56,1.37,1.37,0,0,1-.26.51,1.54,1.54,0,0,1-.49.37,1.81,1.81,0,0,1-.74.14,1.55,1.55,0,0,1-1-.3,1.39,1.39,0,0,1-.5-.89l.66-.14a1,1,0,0,0,.26.53.84.84,0,0,0,.56.19,1,1,0,0,0,.46-.1.73.73,0,0,0,.28-.27,1.15,1.15,0,0,0,.14-.38,3.13,3.13,0,0,0,0-.44v-3.88h.65Z"/><path class="cls-26" d="M565.49,153.21a3,3,0,0,1-.12.85,1.94,1.94,0,0,1-.35.72,1.7,1.7,0,0,1-.65.49,2.57,2.57,0,0,1-1.94,0,1.66,1.66,0,0,1-.64-.49,1.81,1.81,0,0,1-.36-.72,3,3,0,0,1-.12-.85v-3.43H562v3.33a2.76,2.76,0,0,0,.07.65,1.76,1.76,0,0,0,.24.56,1.13,1.13,0,0,0,.43.38,1.47,1.47,0,0,0,.69.15,1.41,1.41,0,0,0,.69-.15,1.16,1.16,0,0,0,.44-.38,1.74,1.74,0,0,0,.23-.56,2.76,2.76,0,0,0,.07-.65v-3.33h.66Z"/><path class="cls-26" d="M570.83,150.76a1,1,0,0,0-.43-.39,1.46,1.46,0,0,0-.57-.12,1.54,1.54,0,0,0-.43.06,1.18,1.18,0,0,0-.38.16.84.84,0,0,0-.27.29.82.82,0,0,0-.1.42,1,1,0,0,0,.05.33.63.63,0,0,0,.2.26,1,1,0,0,0,.36.22,4.6,4.6,0,0,0,.55.21,6.5,6.5,0,0,1,.62.22,1.8,1.8,0,0,1,.53.29,1.24,1.24,0,0,1,.37.45,1.66,1.66,0,0,1,0,1.4,1.49,1.49,0,0,1-.43.5,2.1,2.1,0,0,1-.62.3,3,3,0,0,1-.73.1,2.61,2.61,0,0,1-.48-.05,2.32,2.32,0,0,1-.47-.13,2.13,2.13,0,0,1-.42-.23,1.42,1.42,0,0,1-.33-.36l.56-.46a1.17,1.17,0,0,0,.5.46,1.58,1.58,0,0,0,.68.16,1.33,1.33,0,0,0,.43-.07,1.21,1.21,0,0,0,.38-.18.89.89,0,0,0,.28-.3.73.73,0,0,0,.11-.42.81.81,0,0,0-.08-.41.8.8,0,0,0-.27-.28A1.89,1.89,0,0,0,570,153l-.64-.22a3,3,0,0,1-.55-.22,1.48,1.48,0,0,1-.43-.29,1.22,1.22,0,0,1-.29-.42,1.55,1.55,0,0,1-.11-.59,1.42,1.42,0,0,1,.16-.7,1.44,1.44,0,0,1,.42-.5,2.11,2.11,0,0,1,.6-.3,2.39,2.39,0,0,1,.71-.1,2.34,2.34,0,0,1,.85.15,1.57,1.57,0,0,1,.69.5Z"/><path class="cls-26" d="M577.63,150.39h-1.82v4.93h-.66v-4.93h-1.83v-.61h4.31Z"/><path class="cls-26" d="M579.78,149.78h.65v5.54h-.65Z"/><path class="cls-26" d="M587.05,150.92a1.55,1.55,0,0,0-.61-.5,1.91,1.91,0,0,0-1.62,0,2.07,2.07,0,0,0-.67.5,2.54,2.54,0,0,0-.59,1.61,2.44,2.44,0,0,0,.16.9,2.1,2.1,0,0,0,1.09,1.22,2,2,0,0,0,.86.18,2.06,2.06,0,0,0,.91-.2,2.23,2.23,0,0,0,.69-.58l.49.42a2.24,2.24,0,0,1-.9.73,2.84,2.84,0,0,1-1.19.24,2.89,2.89,0,0,1-1.11-.22,2.77,2.77,0,0,1-.89-.61,2.62,2.62,0,0,1-.6-.92,3.11,3.11,0,0,1-.21-1.16,3,3,0,0,1,.2-1.14,2.6,2.6,0,0,1,.59-.92,2.55,2.55,0,0,1,.89-.62,2.78,2.78,0,0,1,1.13-.23,3,3,0,0,1,1.08.2,2,2,0,0,1,.87.67Z"/><path class="cls-26" d="M590.05,149.78h3.47v.61H590.7v1.74h2.64v.61H590.7v2h3v.61h-3.62Z"/><rect class="cls-27" x="502.14" y="107.02" width="68.64" height="12.87"/><path class="cls-10" d="M589.43,167l41.41.05Z"/><path class="cls-10" d="M589.43,174.8l41.41-.05Z"/><path class="cls-10" d="M589.43,182.61l41.41,0Z"/><path class="cls-10" d="M589.43,190.42l41.41,0Z"/><path class="cls-10" d="M589.43,198.23l41.41,0Z"/><path class="cls-10" d="M589.43,206l41.41-.06Z"/><path class="cls-10" d="M589.43,213.85l41.22,0Z"/><path class="cls-10" d="M589.43,221.66l41.22,0Z"/><path class="cls-10" d="M589.43,229.48h0Z"/><path class="cls-10" d="M589.43,237.29l41-.08Z"/><path class="cls-26" d="M523,111.37h.49l1.85,4.35h-.61l-.44-1.07h-2.17l-.45,1.07h-.59Zm.23.66h0l-.9,2.14h1.78Z"/><path class="cls-26" d="M526.37,115a.35.35,0,0,1,.26.1.39.39,0,0,1,.11.27.35.35,0,0,1-.12.26.35.35,0,0,1-.25.1.37.37,0,0,1-.26-.1.38.38,0,0,1-.11-.26.35.35,0,0,1,.11-.27A.35.35,0,0,1,526.37,115Z"/><path class="cls-26" d="M527.81,111.37h1.67a1.85,1.85,0,0,1,.46,0,2,2,0,0,1,.47.15,2.46,2.46,0,0,1,.46.28,2.19,2.19,0,0,1,.38.42,2.24,2.24,0,0,1,.27.56,2.61,2.61,0,0,1,0,1.43,2.42,2.42,0,0,1-.27.56,1.87,1.87,0,0,1-.38.41,2.37,2.37,0,0,1-.93.44,2.49,2.49,0,0,1-.46,0h-1.67Zm.52,3.87h1a2.28,2.28,0,0,0,.7-.1,1.72,1.72,0,0,0,.55-.3,1.58,1.58,0,0,0,.37-.53,2,2,0,0,0,.13-.77,2,2,0,0,0-.13-.77,1.53,1.53,0,0,0-.37-.52,1.57,1.57,0,0,0-.55-.31,2.63,2.63,0,0,0-.7-.09h-1Z"/><path class="cls-26" d="M538.34,115.72h-.51V112h0l-.78.66-.3-.38,1.16-.94h.45Z"/><path class="cls-26" d="M542.79,113.9h0a.77.77,0,0,1-.28.1l-.3,0a1.35,1.35,0,0,1-.53-.1,1.07,1.07,0,0,1-.41-.28,1.28,1.28,0,0,1-.28-.43,1.58,1.58,0,0,1-.1-.55,1.41,1.41,0,0,1,.11-.57,1.35,1.35,0,0,1,.31-.43,1.29,1.29,0,0,1,.47-.27,1.52,1.52,0,0,1,.57-.1,1.48,1.48,0,0,1,.57.1,1.29,1.29,0,0,1,.47.27,1.35,1.35,0,0,1,.31.43,1.41,1.41,0,0,1,.11.57,2,2,0,0,1,0,.35,1.49,1.49,0,0,1-.09.3,2.55,2.55,0,0,1-.13.29l-.16.28-1.16,1.84h-.6Zm-.46-.32a.94.94,0,0,0,.37-.07.92.92,0,0,0,.3-.18,1,1,0,0,0,.2-.29.89.89,0,0,0-.5-1.24,1.17,1.17,0,0,0-.74,0,1,1,0,0,0-.5,1.24,1,1,0,0,0,.2.29.92.92,0,0,0,.3.18A.94.94,0,0,0,542.33,113.58Z"/><path class="cls-26" d="M548,111.85h-1.78l0,1.17a.83.83,0,0,1,.28-.08,1.37,1.37,0,0,1,.28,0,1.48,1.48,0,0,1,.57.1,1.23,1.23,0,0,1,.44.3,1.27,1.27,0,0,1,.28.46,1.48,1.48,0,0,1,.1.57,1.63,1.63,0,0,1-.11.59,1.23,1.23,0,0,1-.32.45,1.35,1.35,0,0,1-.47.3,1.63,1.63,0,0,1-.59.1,1.38,1.38,0,0,1-.8-.21,1.54,1.54,0,0,1-.49-.58l.52-.2a.91.91,0,0,0,.32.4.84.84,0,0,0,.49.15,1.16,1.16,0,0,0,.37-.07.86.86,0,0,0,.29-.21,1,1,0,0,0,.2-.31,1.07,1.07,0,0,0,.07-.41,1,1,0,0,0-.08-.43.87.87,0,0,0-.23-.31,1.11,1.11,0,0,0-.34-.19,1.42,1.42,0,0,0-.42-.06,1.51,1.51,0,0,0-.46.07,2.83,2.83,0,0,0-.43.2l0-2.26H548Z"/><path class="cls-26" d="M552.55,111.85l-1.74,3.87h-.58l1.77-3.87h-2.1v-.48h2.65Z"/><path class="cls-31" d="M261,502.29a298.54,298.54,0,0,1,58.17-177.93C162.89,333.2,34.49,431.35.2,561H266.66A303.9,303.9,0,0,1,261,502.29Z"/><path class="cls-31" d="M266.57,560.87l208,.16C496.24,502,538,451.24,592.49,415.55c-63.63-56.66-152.22-91.85-250.25-91.92-7.73,0-15.4.23-23,.65a298.5,298.5,0,0,0-58.3,177.89A304.06,304.06,0,0,0,266.57,560.87Z"/><path class="cls-31" d="M592.47,415.42C538,451.16,496.28,501.91,474.69,561H684.11C669.31,505.06,637,455,592.47,415.42Z"/><rect class="cls-28" x="397.08" y="14" width="6.57" height="260.36"/><rect class="cls-31" x="403.65" y="14" width="87.88" height="11.5"/><rect class="cls-32" x="403.65" y="25.5" width="87.88" height="11.5"/><rect class="cls-33" x="403.65" y="37" width="87.88" height="11.5"/><ellipse class="cls-11" cx="294.82" cy="333.91" rx="33.26" ry="4.52"/><ellipse class="cls-11" cx="406.82" cy="376.91" rx="33.26" ry="4.52"/><ellipse class="cls-13" cx="662.78" cy="434.11" rx="33.26" ry="4.52"/><ellipse class="cls-13" cx="919.03" cy="453.82" rx="33.26" ry="4.52"/><rect class="cls-2" x="271.77" y="298.52" width="41.92" height="34.16"/><circle class="cls-3" cx="280.86" cy="311.73" r="3.7"/><circle class="cls-3" cx="304.68" cy="311.73" r="3.7"/><polygon class="cls-4" points="291.95 301.62 256.24 301.62 274.09 288.81 291.95 276 309.81 288.81 327.66 301.62 291.95 301.62"/><rect class="cls-4" x="299.71" y="276.78" width="10.87" height="15.53"/><ellipse class="cls-11" cx="187.23" cy="372.51" rx="33.26" ry="4.52"/><circle class="cls-5" cx="280.86" cy="310.09" r="3.7"/><circle class="cls-5" cx="304.68" cy="310.09" r="3.7"/><path class="cls-6" d="M292.77,315.43h0a5.75,5.75,0,0,1,5.75,5.75v11.5a0,0,0,0,1,0,0H287a0,0,0,0,1,0,0v-11.5a5.75,5.75,0,0,1,5.75-5.75Z"/><rect class="cls-3" x="272.24" y="301.47" width="41.89" height="1.64"/><rect class="cls-2" x="386.77" y="343.52" width="41.92" height="34.16"/><circle class="cls-3" cx="395.86" cy="356.73" r="3.7"/><circle class="cls-3" cx="419.68" cy="356.73" r="3.7"/><polygon class="cls-4" points="406.95 346.62 371.24 346.62 389.09 333.81 406.95 321 424.81 333.81 442.66 346.62 406.95 346.62"/><rect class="cls-4" x="414.71" y="321.78" width="10.87" height="15.53"/><circle class="cls-5" cx="395.86" cy="355.09" r="3.7"/><circle class="cls-5" cx="419.68" cy="355.09" r="3.7"/><path class="cls-6" d="M407.77,360.43h0a5.75,5.75,0,0,1,5.75,5.75v11.5a0,0,0,0,1,0,0H402a0,0,0,0,1,0,0v-11.5A5.75,5.75,0,0,1,407.77,360.43Z"/><rect class="cls-3" x="387.24" y="346.47" width="41.89" height="1.64"/><rect class="cls-2" x="165.81" y="337.94" width="41.92" height="34.16"/><circle class="cls-3" cx="174.91" cy="351.16" r="3.7"/><circle class="cls-3" cx="198.73" cy="351.16" r="3.7"/><polygon class="cls-4" points="186 341.05 150.29 341.05 168.14 328.24 186 315.43 203.85 328.24 221.71 341.05 186 341.05"/><rect class="cls-4" x="193.76" y="316.2" width="10.87" height="15.53"/><circle class="cls-5" cx="174.91" cy="349.51" r="3.7"/><circle class="cls-5" cx="198.73" cy="349.51" r="3.7"/><path class="cls-6" d="M186.82,354.85h0a5.75,5.75,0,0,1,5.75,5.75v11.5a0,0,0,0,1,0,0h-11.5a0,0,0,0,1,0,0V360.6A5.75,5.75,0,0,1,186.82,354.85Z"/><rect class="cls-3" x="166.29" y="340.89" width="41.89" height="1.64"/><rect class="cls-2" x="897.62" y="419.25" width="41.92" height="34.16"/><circle class="cls-3" cx="906.71" cy="432.47" r="3.7"/><circle class="cls-3" cx="930.53" cy="432.47" r="3.7"/><polygon class="cls-4" points="917.8 422.36 882.09 422.36 899.95 409.55 917.8 396.74 935.66 409.55 953.51 422.36 917.8 422.36"/><rect class="cls-4" x="925.57" y="397.52" width="10.87" height="15.53"/><circle class="cls-5" cx="906.71" cy="430.82" r="3.7"/><circle class="cls-5" cx="930.53" cy="430.82" r="3.7"/><path class="cls-6" d="M918.62,436.16h0a5.75,5.75,0,0,1,5.75,5.75v11.5a0,0,0,0,1,0,0h-11.5a0,0,0,0,1,0,0v-11.5A5.75,5.75,0,0,1,918.62,436.16Z"/><rect class="cls-3" x="898.09" y="422.2" width="41.89" height="1.64"/><rect class="cls-2" x="644.65" y="399.54" width="41.92" height="34.16"/><circle class="cls-3" cx="653.75" cy="412.76" r="3.7"/><circle class="cls-3" cx="677.56" cy="412.76" r="3.7"/><polygon class="cls-4" points="664.83 402.65 629.12 402.65 646.98 389.84 664.83 377.03 682.69 389.84 700.54 402.65 664.83 402.65"/><rect class="cls-4" x="672.6" y="377.8" width="10.87" height="15.53"/><circle class="cls-5" cx="653.75" cy="411.11" r="3.7"/><circle class="cls-5" cx="677.56" cy="411.11" r="3.7"/><path class="cls-6" d="M665.65,416.45h0a5.75,5.75,0,0,1,5.75,5.75v11.5a0,0,0,0,1,0,0h-11.5a0,0,0,0,1,0,0V422.2A5.75,5.75,0,0,1,665.65,416.45Z"/><rect class="cls-3" x="645.12" y="402.49" width="41.89" height="1.64"/><ellipse class="cls-11" cx="454.5" cy="404.5" rx="7.5" ry="3.5"/><ellipse class="cls-11" cx="248.5" cy="344.5" rx="7.5" ry="3.5"/><ellipse class="cls-11" cx="149.5" cy="423.5" rx="7.5" ry="3.5"/><line class="cls-10" x1="517.82" y1="209.48" x2="487.43" y2="350.74"/><polygon class="cls-34" points="249.24 328.57 230.35 328.57 239.79 303.52 249.24 278.47 258.69 303.52 268.13 328.57 249.24 328.57"/><path class="cls-10" d="M242.26,319.53,248,325Z"/><path class="cls-10" d="M248,327.88l5.75-4.24Z"/><polyline class="cls-10" points="253.76 315.43 248.01 320.43 253.76 315.43"/><ellipse class="cls-13" cx="971.5" cy="478.5" rx="7.5" ry="3.5"/><polygon class="cls-12" points="972.12 462.6 953.23 462.6 962.67 437.55 972.12 412.5 981.56 437.55 991.01 462.6 972.12 462.6"/><path class="cls-12" d="M965.14,453.56l5.75,5.5Z"/><path class="cls-12" d="M970.89,461.91l5.74-4.24Z"/><polyline class="cls-12" points="976.63 449.46 970.88 454.46 976.63 449.46"/><polygon class="cls-34" points="456.02 388.52 437.13 388.52 446.57 363.47 456.02 338.42 465.46 363.47 474.91 388.52 456.02 388.52"/><path class="cls-10" d="M449,379.49l5.75,5.49Z"/><path class="cls-10" d="M454.78,387.84l5.75-4.25Z"/><polyline class="cls-10" points="460.53 375.38 454.78 380.38 460.53 375.38"/><polygon class="cls-34" points="150.6 407.47 131.71 407.47 141.16 382.42 150.6 357.37 160.05 382.42 169.5 407.47 150.6 407.47"/><path class="cls-10" d="M143.62,398.44l5.75,5.49Z"/><path class="cls-10" d="M149.37,406.79l5.75-4.25Z"/><polyline class="cls-10" points="155.12 394.33 149.37 399.33 155.12 394.33"/><path class="cls-28" d="M81,203H252s6-36-40-30c0,0-37-47-77,1,0,0-29-6-34,14C101,188,80,186,81,203Z"/><path class="cls-28" d="M720,51H891s6-36-40-30c0,0-37-47-77,1,0,0-29-6-34,14C740,36,719,34,720,51Z"/></svg>