<svg id="Layer_1" data-name="Layer 1" xmlns="http://www.w3.org/2000/svg" viewBox="0 0 1311.27 507.5"><defs><style>.cls-1{fill:#eb2227;}.cls-2{fill:#231f20;}.cls-3{fill:#fff;}</style></defs><title>work</title><circle class="cls-1" cx="254.6" cy="253.9" r="253.6"/><path class="cls-2" d="M711.85,108a5.84,5.84,0,0,1,4.15,1.57,4.9,4.9,0,0,1,1.68,3.67v23.49a4.76,4.76,0,0,1-1.68,3.77,6.09,6.09,0,0,1-4.15,1.47H659.79a13.27,13.27,0,0,1,8.86,3.36q3.93,3.34,3.93,7.55v96a4.1,4.1,0,0,1-1.8,3.57,5.64,5.64,0,0,1-4,1.46H635.56a5.65,5.65,0,0,1-4-1.46,4.1,4.1,0,0,1-1.8-3.57V148.21a5.67,5.67,0,0,0-2-4.61,7.16,7.16,0,0,0-4.71-1.68H590.45a6.23,6.23,0,0,1-4-1.47,4.62,4.62,0,0,1-1.79-3.77V126a16.19,16.19,0,0,1,1.68-7.34,18.35,18.35,0,0,1,4.49-5.76,19.75,19.75,0,0,1,6.28-3.67,20.64,20.64,0,0,1,7.07-1.26Z"/><path class="cls-2" d="M722.52,249.29V126.61a16.79,16.79,0,0,1,5.84-13,19.84,19.84,0,0,1,13.69-5.24h16.6q5.83,0,5.84,5.45v48.65c0,2.38.89,4,2.69,4.93a10.23,10.23,0,0,0,4.26,1.36,136.46,136.46,0,0,0,23.23-2,94.63,94.63,0,0,0,18.06-5.35,9.73,9.73,0,0,0,3.14-2.3,5.37,5.37,0,0,0,1.35-3.78V126.61a16.66,16.66,0,0,1,1.68-7.55,18.35,18.35,0,0,1,4.49-5.76,19.75,19.75,0,0,1,6.28-3.67,20.6,20.6,0,0,1,7.07-1.26h16.6q5.83,0,5.84,5.45V249.29a4.88,4.88,0,0,1-1.57,3.88,6.29,6.29,0,0,1-4.27,1.36H823.05a6.2,6.2,0,0,1-4-1.46,4.65,4.65,0,0,1-1.79-3.78v-49.7a5.2,5.2,0,0,0-2.13-4.61,8,8,0,0,0-4.6-1.47,7.87,7.87,0,0,0-2.25.42,119.79,119.79,0,0,1-22.1,3.77q-11.11.84-19.63.84-4.5,0-7.63-.1c-2.1-.07-3.74-.11-4.94-.11a12.87,12.87,0,0,1,7.52,3.67,9.91,9.91,0,0,1,3,7.24v40a4.88,4.88,0,0,1-1.57,3.88,6.29,6.29,0,0,1-4.27,1.36H728.14a5.65,5.65,0,0,1-4-1.46A4.94,4.94,0,0,1,722.52,249.29Z"/><path class="cls-2" d="M994.28,254.32H962.64a9.24,9.24,0,0,1-9-5.45l-22.89-41.94a6.64,6.64,0,0,0-6.06-3.36H895.33a11.87,11.87,0,0,1,12.11,11.12v34.6a4.31,4.31,0,0,1-1.57,3.57,5.67,5.67,0,0,1-4,1.46H871.09a5.55,5.55,0,0,1-3.92-1.57,4.66,4.66,0,0,1-1.69-3.46V126.4a16.45,16.45,0,0,1,5.84-12.9A20.06,20.06,0,0,1,885,108.37h47.57a110.44,110.44,0,0,1,23.9,2.51,59.77,59.77,0,0,1,20,8.18,42.38,42.38,0,0,1,13.8,14.79q5.16,9.12,5.16,22.33a43.14,43.14,0,0,1-6,22.65q-6.06,10.06-18,16.36a3.29,3.29,0,0,0-1.9,2.51,3.16,3.16,0,0,0,.56,2.31l28.27,47.81a5,5,0,0,1,.67,2.31,3.79,3.79,0,0,1-1.45,2.94A4.92,4.92,0,0,1,994.28,254.32ZM948.37,156q0-8.59-5.49-13.11t-14.25-4.5H890a11.77,11.77,0,0,1,9,3.56,10.93,10.93,0,0,1,3.36,7.55v17a6,6,0,0,0,1.91,4.4,6.57,6.57,0,0,0,4.83,1.89h19.52q8.75,0,14.25-4.09T948.37,156Z"/><path class="cls-2" d="M998.41,249.08V126.4a16.66,16.66,0,0,1,5.83-13.1,20,20,0,0,1,13.69-5.14h18a5.19,5.19,0,0,1,4,1.47,4.9,4.9,0,0,1,1.57,3.77V249.08a4.7,4.7,0,0,1-1.57,3.57,4.85,4.85,0,0,1-4,1.67H1004a5.56,5.56,0,0,1-3.93-1.57A4.88,4.88,0,0,1,998.41,249.08Z"/><path class="cls-2" d="M1184.43,108a4.85,4.85,0,0,1,3.25,1.26,3.76,3.76,0,0,1,1.46,2.93,5.14,5.14,0,0,1-.22,1.89l-45.33,133.79a9.93,9.93,0,0,1-2.92,4.41c-1.34,1.12-3.44,1.67-6.28,1.67h-35.9c-2.85,0-4.94-.55-6.28-1.67a10.2,10.2,0,0,1-3.15-4.41L1044,114l-.45-1.89a3.87,3.87,0,0,1,1.35-2.93,5.56,5.56,0,0,1,3.59-1.26h29.17a8.53,8.53,0,0,1,5.61,1.68,9.86,9.86,0,0,1,2.69,3.77l29.4,91c0,.56.37.84,1.12.84.59,0,.9-.28.9-.84l29.62-91a7.18,7.18,0,0,1,3.14-4.09,9.7,9.7,0,0,1,5.16-1.36Z"/><path class="cls-2" d="M1192.57,249.08V126.4a16.66,16.66,0,0,1,5.83-13.1,20,20,0,0,1,13.69-5.14h91.55a5.83,5.83,0,0,1,4.15,1.57,5.11,5.11,0,0,1,1.69,3.88v20.76a4.33,4.33,0,0,1-1.57,3.57,6,6,0,0,1-4.27,1.46h-82.8a11.88,11.88,0,0,1,8.87,3.57,11,11,0,0,1,3.47,7.76v8.81a7,7,0,0,0,1.69,4.4,6.07,6.07,0,0,0,5.05,2.1h48.91a5.83,5.83,0,0,1,4.15,1.57,5.11,5.11,0,0,1,1.69,3.88v18.87a5.11,5.11,0,0,1-1.69,3.88,5.84,5.84,0,0,1-4.15,1.58h-68a12.36,12.36,0,0,1,8.75,3.35,10.16,10.16,0,0,1,3.59,7.55v9.86a6.68,6.68,0,0,0,1.8,4.4,6.14,6.14,0,0,0,4.94,2.1h65.52q5.83,0,5.83,5.45v20.55a4.71,4.71,0,0,1-1.68,3.88,6.38,6.38,0,0,1-4.15,1.36H1198.18a5.56,5.56,0,0,1-3.93-1.57A4.88,4.88,0,0,1,1192.57,249.08Z"/><path class="cls-1" d="M725.83,418.16H694.19a9.28,9.28,0,0,1-9-5.46l-22.89-41.94a6.61,6.61,0,0,0-6.05-3.35h-29.4A11.87,11.87,0,0,1,639,378.52v34.6a4.33,4.33,0,0,1-1.57,3.57,5.69,5.69,0,0,1-4,1.47H602.64a5.57,5.57,0,0,1-3.93-1.58,4.66,4.66,0,0,1-1.68-3.46V290.23a16.45,16.45,0,0,1,5.83-12.89,20,20,0,0,1,13.69-5.14h47.57a109.88,109.88,0,0,1,23.9,2.52,59.64,59.64,0,0,1,20,8.17,42.57,42.57,0,0,1,13.8,14.79Q727,306.8,727,320a43.05,43.05,0,0,1-6.06,22.65q-6.06,10.06-17.95,16.36a3.31,3.31,0,0,0-1.91,2.52,3.12,3.12,0,0,0,.56,2.3l28.27,47.82a5,5,0,0,1,.68,2.3,3.8,3.8,0,0,1-1.46,2.94A4.87,4.87,0,0,1,725.83,418.16ZM683.64,319.8q0-8.6-5.5-13.1t-14.25-4.51H625.3a11.8,11.8,0,0,1,9,3.56,10.93,10.93,0,0,1,3.36,7.55v17a6,6,0,0,0,1.91,4.4,6.57,6.57,0,0,0,4.82,1.89h19.52q8.76,0,14.25-4.09T683.64,319.8Z"/><path class="cls-1" d="M767.78,415V377.66a27.48,27.48,0,0,0-.89-6.82,22.91,22.91,0,0,0-2.25-5.76l-48.46-84.31a4.18,4.18,0,0,1-.68-2.3,4.06,4.06,0,0,1,1.46-3,4.66,4.66,0,0,1,3.25-1.37h29.4a11,11,0,0,1,4.82,1.15,6.4,6.4,0,0,1,3.26,3.46q8.07,13.65,14.58,24.54,3.81,6.72,6.17,10.59t4.27,7.24q1.9,3.34,3.36,5.66c1,1.54,1.53,2.45,1.68,2.72a1.35,1.35,0,0,0,1.13.63.87.87,0,0,0,.89-.63c.15-.27.71-1.22,1.69-2.83s2.16-3.59,3.59-6,3-5.11,4.82-8.18l5.39-9.23q6.5-10.9,14.58-24.54a9.11,9.11,0,0,1,8.08-4.61h29.4a4.67,4.67,0,0,1,3.25,1.37,4.1,4.1,0,0,1,1.46,3,4.18,4.18,0,0,1-.68,2.3q-13,22.65-23.56,40.69-6.28,11.12-10,17.51T821,350.92q-3.15,5.56-5.39,9.44t-2.69,4.51a22.21,22.21,0,0,0-2.36,6,26,26,0,0,0-.78,6.19v38a4.87,4.87,0,0,1-1.58,3.88,6.24,6.24,0,0,1-4.26,1.36H773.39a5.69,5.69,0,0,1-4-1.47A5,5,0,0,1,767.78,415Z"/><path class="cls-1" d="M861.8,413.33V290.65a16.52,16.52,0,0,1,6-13.1,20.15,20.15,0,0,1,13.57-5.14H926.2a111.28,111.28,0,0,1,27.71,3.25A62.57,62.57,0,0,1,976,285.94a49.33,49.33,0,0,1,14.81,17.82q5.38,10.8,5.83,25.69.23,2.94.22,7v17.93q0,4-.22,6.92-2,57.24-69.34,57.25H867.41a5.67,5.67,0,0,1-4-1.47A5,5,0,0,1,861.8,413.33Zm64.4-26q14.59,0,21.09-6.61T954,360.91c.14-2,.26-4.23.33-6.82s.12-5.48.12-8.7,0-6.12-.12-8.7-.19-4.86-.33-6.82q-.67-26.22-28.95-26.21H891.42a12.12,12.12,0,0,1,8.75,3.46c2.39,2.3,3.59,4.79,3.59,7.44v66.27a6.24,6.24,0,0,0,1.91,4.61,6.85,6.85,0,0,0,5.05,1.89Z"/><path class="cls-1" d="M1004.29,412.92V290.23a16.68,16.68,0,0,1,5.83-13.1,20,20,0,0,1,13.69-5.14h91.55a5.84,5.84,0,0,1,4.15,1.57,5.12,5.12,0,0,1,1.68,3.88V298.2a4.31,4.31,0,0,1-1.57,3.57,6,6,0,0,1-4.26,1.47h-82.8a11.87,11.87,0,0,1,8.86,3.56,11,11,0,0,1,3.48,7.76v8.81a6.88,6.88,0,0,0,1.69,4.4,6.07,6.07,0,0,0,5,2.1h48.92a5.84,5.84,0,0,1,4.15,1.57,5.12,5.12,0,0,1,1.68,3.88V354.2a5.1,5.1,0,0,1-1.68,3.88,5.84,5.84,0,0,1-4.15,1.57h-68a12.36,12.36,0,0,1,8.75,3.35,10.16,10.16,0,0,1,3.59,7.55v9.86a6.66,6.66,0,0,0,1.8,4.4,6.13,6.13,0,0,0,4.93,2.1h65.52q5.83,0,5.84,5.45v20.56a4.72,4.72,0,0,1-1.68,3.88,6.4,6.4,0,0,1-4.16,1.36H1009.9a5.57,5.57,0,0,1-3.93-1.58A4.86,4.86,0,0,1,1004.29,412.92Z"/><path class="cls-3" d="M112.25,240.43l52.7,1.18s111.78-90.74,195.67,0c0,0,49.63,3.08,55.07,10.4s22.45,41.36,15.59,43.48-11.58,2.6-20.08,0-56.72-28.12-93.82-18-84.13,24.82-88.62,26S159,322.91,118.63,313.45s-62.86-43.72-16.3-72.55c0,0-29.07,26.71-6.38,49.63s55.53,21.74,101.14,16.54,86.68-31.69,106.61-34.84,55.71-2,78.12,8.26,50.73,20.84,47.32,6.95-16.25-33-16.25-33-9.57-7.86-55.06-7.07c0,0-34.6-46.14-86.64-44.57S173.27,232.38,172,244.84l-57.42,1.57s-9,9.57,1.58,9.17c0,0,1.57.27.91,6.95s-.91,7.74-1.7,7.74-7.87,3.67-7.87,3.67,11.41,16,15.87,16,29.36.26,29.36.26,36.18-36.7,67.64-1.44c0,0-20.85-26.74-65.15,10.48l-34.35-.91-20-20.45,3.28-9.57,8.39-2.75-.14-6-6.29-.8-4.32-3.79Z"/><path class="cls-3" d="M189.48,233.48s84.44-40.35,144.39,10.09c0,0-27.38,13.26-65.71,6.34,0,0,42.37,12.68,80.41-3.46C348.57,246.45,288.62,177.28,189.48,233.48Z"/><path class="cls-3" d="M142.79,276.42s-13.26-25.65,28.53-28.24,64.27,18.16,102.32,17A387.57,387.57,0,0,0,344.82,256s30.84-7.78,36.61,12.39c0,0-15.69-15.87-40.07-8.44s-68.18,10.43-68.18,10.43-18.38,2.09-49.67-10.82S144.85,251.48,142.79,276.42Z"/><path class="cls-3" d="M353.82,301.78c-.34,9.43-7.32,18.78-17.67,17.36-8.94-1.22-15.49-9.43-15.51-18.29,0-9.72,8-18.89,18.28-17.07,8.93,1.59,14.58,9.63,14.89,18.35.05,1.5,5.46.49,5.39-1.45-.43-12.21-10.9-20.95-23-19.9-11.1,1-21,9.56-21,21.17,0,12.06,10.62,20.76,22.29,20.12,11.51-.63,21.28-9.29,21.69-21C359.26,299,353.87,300.15,353.82,301.78Z"/></svg>