<svg id="Layer_1" data-name="Layer 1" xmlns="http://www.w3.org/2000/svg" viewBox="0 0 1311.27 1150.53"><defs><style>.cls-1{fill:#231f20;}</style></defs><title>work</title><path class="cls-1" d="M133.51,309,182.6,0H248q61.78,0,91.1,28.78t29.3,89.09A281.07,281.07,0,0,1,353.9,207.7Q339.4,251,316.55,274.25A106.19,106.19,0,0,1,273.8,301Q249.68,309,198.47,309Zm99-76.18a13.44,13.44,0,0,0,1.8.32,28,28,0,0,0,2.85.11,30.83,30.83,0,0,0,14.5-3.6,33.22,33.22,0,0,0,11.53-9.95q7.62-10.16,14.6-41.37a283.48,283.48,0,0,0,7-62.11q0-20.1-6.46-29.52T257.51,76.18Z"/><path class="cls-1" d="M348.9,309,398,0h72.8q68.57,0,94.48,18t25.92,61.36q0,37.89-16.4,62.22T527.5,173.73L565.59,309H474.17L454.71,184.1,435.24,309ZM462.54,137.76h4.65q19.68,0,30.26-12.38T508,89.72Q508,76.4,501.26,70t-20.95-6.35c-.56,0-1.52.08-2.86.22a32.81,32.81,0,0,1-3.28.21Z"/><path class="cls-1" d="M580.8,309,629.89,0h153L771,74.91H704.38l-6.56,39.36h60.31l-11.22,72.37H686.6l-7,42.53h66.87L733.79,309Z"/><path class="cls-1" d="M739.05,309,855.22,0H957l21.8,309H891.62l.42-45.49H841L827.5,309ZM859.24,201h34.49l1.06-114.48Z"/><path class="cls-1" d="M1099.81,79.78,1056.22,309H981.94L1053.05,0H1154l.85,162.94L1207.31,0h100.52l-26.46,309h-74.48L1235,80.2,1161.81,309h-58.4Z"/><path class="cls-1" d="M27.41,978.28l99.43-639.41H288.41q117.42,0,168.86,34.6T508.69,486q0,63.06-33.42,102T375,641.93q49.29,14,76.07,49.49t26.79,85.84a201.53,201.53,0,0,1-18.43,85.18,184.84,184.84,0,0,1-51.86,67.23q-30.85,25.83-72.64,37.22T223.27,978.28ZM220.69,844.7a81.76,81.76,0,0,0,9,1.32q4.73.43,12,.44,30.87,0,46.93-21T304.69,765q0-30.22-14.57-45.33T246,704.56h-5.14Zm38.58-259.26q3.42.43,7.28.65t12,.22q29.15,0,46.07-16.86t16.93-45.77q0-24.52-13.5-37T288.41,474.2a56.88,56.88,0,0,0-6,.43,53.74,53.74,0,0,1-5.57.44Z"/><path class="cls-1" d="M1028,621.62h223.72q-7.29,194.45-72.86,288.39T985.15,1004q-99.43,0-151.5-62.41T781.57,760.89q0-92.42,21.65-176.06T863.86,442.5q33.85-51.24,84.86-77.3t117-26.06q82.27,0,133.93,39.2T1265,490.67l-160.71,60.88q-6.86-30.22-17.79-42.27t-30.21-12q-20.14,0-35.14,14.45t-25.72,44.67q-14.56,42.48-25.71,109.27t-11.15,115q0,36.78,10.08,51.89t34.07,15.11q29.56,0,47.35-25.84t20.79-73.57h-59.57Z"/><polygon class="cls-1" points="515.99 528.46 692.29 338.87 804.26 528.92 715.87 525.64 707.17 978.83 482.11 978.83 603.12 525.44 515.99 528.46"/><path class="cls-1" d="M640.15,1148.14l45.37-120.67h39.76l8.51,120.67h-34l.17-17.77H680l-5.29,17.77Zm47-42.15h13.47l.41-44.71Z"/><path class="cls-1" d="M738.74,1148.14,758,1027.47h31.16l10.83,64.8,11.32-64.8h28.27l-18.93,120.67h-31l-11.49-62.48-10.66,62.48Z"/><path class="cls-1" d="M836,1148.14l19.17-120.67h25.54q24.13,0,35.58,11.24t11.45,34.8a109.83,109.83,0,0,1-5.66,35.08q-5.67,16.9-14.59,26A41.44,41.44,0,0,1,890.8,1145q-9.43,3.09-29.43,3.1Zm38.68-29.76a4.83,4.83,0,0,0,.7.13,10.47,10.47,0,0,0,1.12,0,12,12,0,0,0,5.66-1.41,12.91,12.91,0,0,0,4.5-3.88q3-4,5.71-16.16a111.23,111.23,0,0,0,2.72-24.25q0-7.86-2.52-11.53t-8.14-4.09Z"/><path class="cls-1" d="M1046.06,1058.47a25.46,25.46,0,0,0-5.62-2.24,22.06,22.06,0,0,0-5.37-.66q-11.82,0-19,11.28t-7.19,30q0,12,4.34,17.77t13.27,5.79a25.74,25.74,0,0,0,4.66-.46,40.31,40.31,0,0,0,5.34-1.36l-5.13,29.09a34.72,34.72,0,0,1-7.52,2.07,58,58,0,0,1-9.26.66q-20.42,0-31.2-11.9t-10.78-34.55q0-35.46,16.36-57.07t43.39-21.61a53.1,53.1,0,0,1,9.67.87,60.36,60.36,0,0,1,9.34,2.52Z"/><path class="cls-1" d="M1083.49,1150.53q-17.12,0-27.52-12.39t-10.42-33a123.26,123.26,0,0,1,4.34-32.64q4.35-15.87,11.78-26.62a48.88,48.88,0,0,1,16.82-15.53,45.26,45.26,0,0,1,21.78-5.13q17.43,0,27.68,12.19t10.25,33.18a122.66,122.66,0,0,1-4.3,32.57,88.1,88.1,0,0,1-11.81,26.69,47.32,47.32,0,0,1-16.66,15.5A45.71,45.71,0,0,1,1083.49,1150.53Zm-4-42.64q0,6.78,1.82,9.87a6.2,6.2,0,0,0,5.78,3.1,8.12,8.12,0,0,0,6.16-2.81q2.61-2.8,4.67-9a112.4,112.4,0,0,0,4.42-19.39,146.67,146.67,0,0,0,1.7-21.61c0-4.52-.58-7.83-1.74-10a5.73,5.73,0,0,0-5.37-3.18,8.79,8.79,0,0,0-6.57,2.77q-2.68,2.77-4.59,8.89a126.16,126.16,0,0,0-4.5,19.83A140.38,140.38,0,0,0,1079.44,1107.89Z"/><path class="cls-1" d="M1167.28,1128.3a22.55,22.55,0,0,1-5.78,15.66,18.6,18.6,0,0,1-14.38,6.41,13.71,13.71,0,0,1-10.54-4.3q-4-4.29-4-11.49,0-9.49,5.66-15.82a18.4,18.4,0,0,1,14.34-6.33,13.9,13.9,0,0,1,10.66,4.34Q1167.28,1121.12,1167.28,1128.3Z"/><polygon class="cls-1" points="624.13 1124.9 -0.68 1124.9 18.01 1061.79 646.74 1062.63 624.13 1124.9"/></svg>